<?xml version="1.0" encoding="utf-8"?><svg viewBox="0 0 64 53" xmlns="http://www.w3.org/2000/svg" xmlns:xlink="http://www.w3.org/1999/xlink"><style>:root>svg{display:none}:root>svg:target{display:block}</style><svg fill="none" viewBox="0 0 7 12" id="arrow_to_down" xmlns="http://www.w3.org/2000/svg"><path d="M3.5 11L6 8.647M3.5 11L1 8.647M3.5 11V1" stroke="#141312" stroke-linecap="round" stroke-linejoin="round"/></svg><svg fill="none" viewBox="0 0 11 8" id="check_mark" xmlns="http://www.w3.org/2000/svg"><path d="M1 3.25L4.462 7 10 1" stroke="#141312" stroke-linecap="round" stroke-linejoin="round"/></svg><svg fill="none" viewBox="0 0 16 16" id="empty" xmlns="http://www.w3.org/2000/svg"><path d="M16 7.871c0 2.103-.832 4.08-2.343 5.566A8.014 8.014 0 018 15.743a8.046 8.046 0 01-4.172-1.153l.917-.902A6.795 6.795 0 008 14.513c3.722 0 6.75-2.98 6.75-6.642 0-1.16-.305-2.252-.838-3.203l.917-.902A7.727 7.727 0 0116 7.871zM.91 15.716l-.883-.87 1.891-1.86A7.738 7.738 0 010 7.87C0 5.77.832 3.792 2.343 2.305A8.014 8.014 0 018 0c1.927 0 3.75.666 5.198 1.887l1.891-1.86.884.869L.911 15.716zm1.898-3.606l9.5-9.347A6.785 6.785 0 008 1.23c-3.722 0-6.75 2.98-6.75 6.641 0 1.61.586 3.088 1.558 4.24z" fill="#777"/></svg><svg fill="none" viewBox="0 0 16 16" id="game_complex" xmlns="http://www.w3.org/2000/svg"><path d="M14.528 13.054H10.49a7 7 0 003.5-6.058A7.004 7.004 0 006.997 0 7.004 7.004 0 000 6.996a7.004 7.004 0 006.996 6.996h7.532a.536.536 0 010 1.07H8A.469.469 0 108 16h6.528a1.472 1.472 0 100-2.946zm-7.532 0c-.262 0-.52-.017-.774-.05l5.122-2.956.646.373a6.056 6.056 0 01-4.994 2.633zM3.598 12.01L9.17 8.792l1.236.714-5.5 3.176a6.043 6.043 0 01-1.308-.673zm-.482-9.663a6.075 6.075 0 011.237-.8V7.98l-1.237.714V2.346zm2.175-1.164c.396-.116.81-.194 1.236-.227v5.77l-1.236.714V1.182zm7.763 5.814c0 .147-.005.292-.016.437L7.465 4.215V2.787l5.5 3.176c.059.336.09.68.09 1.033zm-5.59-1.699l5.42 3.129c-.1.412-.243.809-.423 1.184L7.465 6.725V5.297zm5.122-.636L7.465 1.704V.955a6.072 6.072 0 015.121 3.706zM2.18 3.326v5.91l-.648.374a6.022 6.022 0 01-.593-2.614c0-1.379.463-2.65 1.241-3.67zm-.178 7.095l4.995-2.884 1.236.714-5.415 3.127A6.109 6.109 0 012 10.42z" fill="#777"/></svg><svg fill="none" viewBox="0 0 16 16" id="house" xmlns="http://www.w3.org/2000/svg"><path d="M15.863 7.167L9.189.492A1.67 1.67 0 008 0c-.45 0-.871.175-1.188.492L.137 7.167a.468.468 0 000 .663l.503.501c.53.531 1.26.656 1.87.477v6.723c0 .26.21.469.47.469h10.04c.26 0 .47-.21.47-.469V8.808c.61.18 1.34.054 1.87-.477l.503-.501a.47.47 0 000-.663zm-3.31 1.027v4.86h-2.076v-3.046A2.475 2.475 0 008 7.531a2.475 2.475 0 00-2.477 2.477v3.046H3.448v-4.86L8 3.642l4.552 4.552zm-9.105 5.798h2.075v1.07H3.448v-1.07zm3.012 1.07v-5.054a1.538 1.538 0 113.08 0v5.055H6.46zm4.017 0v-1.07h2.075v1.07h-2.075zm4.22-7.393a.95.95 0 01-1.345 0l-.009-.01-5.012-5.011a.469.469 0 00-.662 0L2.657 7.66a.95.95 0 01-1.354.009l-.171-.171 6.343-6.343c.29-.29.76-.29 1.05 0l6.343 6.343-.17.17z" fill="#777"/></svg><svg fill="none" viewBox="0 0 64 53" id="logo" xmlns="http://www.w3.org/2000/svg"><path d="M8.24 48.672c-.08-.96-.656-1.904-2.24-1.984.976-.128 2.32-2.368 1.744-4.032-.48-1.344-1.92-.816-2.768-.56-.16 1.28.208 3.632-1.216 3.936-.064-.672.064-1.792-.112-2.96-.336-1.936-2.704-1.04-3.248-.8.208 2.144.176 2.72.176 5.296.016.88-.08 2.272 0 3.024.224 2 2.608 1.472 3.264.784 0-.848-.016-2.576-.064-3.536 1.056-.08 1.248.224 1.28 2.464.016 2.24 2.672 1.824 3.456 1.056-.272-.832-.192-1.888-.272-2.688zm1.388-1.648c0 4.64 2.4 5.024 4.08 4.976 1.552 0 4.096-.432 4.112-4.976-.016-3.888-1.744-5.264-4.064-5.264-2.448 0-4.128 1.504-4.128 5.264zm4.128-2.656c.176 0 .848-.256.848 2.544 0 1.824-.288 2.864-.864 2.864-.48 0-.864-.432-.816-2.864 0-2.208.56-2.544.832-2.544zm7.356.336c0 .912-.016 1.92.032 5.024.016 1.248.064 2.272 1.504 2.24 1.28 0 1.6-.512 1.744-.672.048-1.392-.048-4.432-.08-6.544.352 0 .688 0 .992-.016 1.024-.032 1.376-.64 1.36-1.488-.016-.96-.8-1.472-1.888-1.472h-3.04c-2.416.016-2.576.016-2.768 0-.448 1.888-.176 2.896 1.664 2.928h.48zm12.143-2.864c-1.12-.112-3.824-.064-5.696.016.208 2.128.224 4.864.192 6.8.032 1.856-.128 3.152 1.824 3.28 1.28.096 2 .096 3.152 0 1.568-.128 2.208-.976 1.456-2.832-1.296.192-2.496.24-3.248.096 0-.224-.032-.928 0-1.104.72 0 1.504-.032 2.192-.032 1.424 0 1.28-2.288-.016-2.288-.928-.048-1.344.048-2.208-.032V44.48c.976-.08 1.408-.032 2.224 0 1.536.048 1.536-2.32.128-2.64zm4.998-3.488c-1.056.688-.992 1.728-.24 2.352.848.608 2.512.416 3.632-.08 1.024-.464 1.424-1.52.336-2.304-1.616.848-2.688.416-3.728.032zm5.696 4.848c0-.96-.608-1.424-1.568-1.424-1.12 0-1.696.288-2.032 1.312-.4 1.248-.992 3.168-1.328 4.496 0-.576.096-3.968.096-4.384 0-1.056-.56-1.424-1.504-1.424-.656 0-1.824.416-1.824.416.096.72.176 1.136.192 2.08.032.992 0 2.576.096 5.712.048 1.536.544 2.048 1.792 2 2.24-.08 2.384-4.208 2.992-5.712 0 .688-.032 3.072-.032 3.872 0 1.088.096 1.84 1.36 1.84 1.088 0 1.712-.368 1.904-.704-.128-.48-.176-3.392-.176-5.68 0-1.008.016-1.888.032-2.4zm9.27 5.472c-.08-.96-.657-1.904-2.24-1.984.975-.128 2.32-2.368 1.743-4.032-.48-1.344-1.92-.816-2.768-.56-.16 1.28.208 3.632-1.216 3.936-.064-.672.064-1.792-.112-2.96-.336-1.936-2.704-1.04-3.248-.8.208 2.144.176 2.72.176 5.296.016.88-.08 2.272 0 3.024.224 2 2.608 1.472 3.264.784 0-.848-.016-2.576-.064-3.536 1.056-.08 1.248.224 1.28 2.464.016 2.24 2.672 1.824 3.456 1.056-.272-.832-.192-1.888-.272-2.688zm9.707 2.624c-.224-.624-.208-.928-.256-1.824-.128-2.336-.16-4.592-.928-6.144-1.296-2.288-4.64-1.664-6.256-.512-.144 2.768-.624 3.904-.928 6.992-.224 2.256 1.664 2.88 3.424 1.776 0-.272 0-1.216.08-1.44.208 0 .992.016 1.296.016 0 0-.08.928.368 1.424.8.912 2.64.64 3.2-.288zm-4.752-3.152c.112-.864.112-2.656.16-3.04.08-.064.624-.032.688.048.192.752.192 2.128.24 2.992h-1.088z" fill="#1A212F"/><path d="M39 6.995L45.576.42C46.47-.476 48 .158 48 1.423v17.573c0-5.7-4.513-9.166-9-12z" fill="#FF7236"/><path d="M48 18.997c0 8.837-7.163 16.001-16 16.001-8.836 0-16-7.164-16-16.001 0-8.838 7.164-15.002 16-15.002 8.837 0 16 6.164 16 15.002z" fill="#FFAA50"/><path d="M25 18.996c0-7.701 4.422-13.37 10.31-14.7A18.328 18.328 0 0032 3.995c-2.944 0-5.694.697-8.063 1.937L18.424.419C17.53-.476 16 .158 16 1.423v17.573c0-.36 0-.358 0 0 0 8.838 7.163 16.002 16 16.002 1.135 0 2.242-.122 3.31-.347C29.422 33.125 25 26.698 25 18.996z" fill="#FF7236"/><path d="M28.5 28.997c1.933 0 3.5-1.343 3.5-3s-1.567-3-3.5-3-3.5 1.343-3.5 3 1.567 3 3.5 3zM35.5 28.997c1.933 0 3.5-1.343 3.5-3s-1.567-3-3.5-3-3.5 1.343-3.5 3 1.567 3 3.5 3z" fill="#FFFDFB"/><path d="M32 25.998a2 2 0 100-4 2 2 0 000 4z" fill="#FF913C"/><path d="M26 19.997a1 1 0 01-1-1v-1a1 1 0 112 0v1a1 1 0 01-1 1zM38 19.997a1 1 0 01-1-1v-1a1 1 0 112 0v1a1 1 0 01-1 1z" fill="#1A212F"/></svg><svg fill="none" viewBox="0 0 14 8" id="open_close" xmlns="http://www.w3.org/2000/svg"><path d="M13 7L7 1 1 7" stroke="#1A212F" stroke-width="2" stroke-linecap="round" stroke-linejoin="round"/></svg><svg fill="none" viewBox="0 0 21 18" id="paw" xmlns="http://www.w3.org/2000/svg"><path d="M16.464 6.897c-2.826 1.557-2.428 6.251.608 6.304 1.31.023 2.46-.942 2.985-2.192 1.215-2.886-1.166-5.45-3.593-4.112zM13.579 7.427c3.358.059 4.46-5.627 1.285-6.62-1.447-.453-3.117.543-3.68 2.407-.63 2.09.507 4.18 2.395 4.213z" fill="#FF7236"/><path d="M12.544 17.565c-.465-.137-1.29-.235-2.157-.262-.916-.03-1.876.02-2.5.18-1.683.439-3.944-.73-3.405-3.068.5-2.16 2.16-2.008 2.588-4.056.431-2.07 1.988-3.046 3.483-2.941 1.384.096 2.715 1.119 3.05 3.055.356 2.063 2.018 1.967 2.444 4.143.462 2.357-1.842 3.44-3.503 2.949zM7.667 7.325c.95.016 1.775-.521 2.243-1.358C11.3 3.48 9.145-.035 6.605.665c-3.212.885-2.295 6.602 1.062 6.66z" fill="#FF7236"/><path d="M6.084 11.142c1.123-2.62-1.379-5.887-3.837-4.915-2.962 1.17-1.753 6.46 1.48 6.517 1.038.018 1.93-.606 2.357-1.602zM12.544 17.565c-.464-.137-1.29-.235-2.157-.262l.166-9.885c1.384.096 2.715 1.119 3.05 3.055.357 2.063 2.018 1.967 2.444 4.143.462 2.357-1.842 3.44-3.503 2.949z" fill="#FF7236"/></svg><svg fill="none" viewBox="0 0 14 16" id="scratching_post" xmlns="http://www.w3.org/2000/svg"><path d="M13.228 13.612H8.897V2.388h1.694v4.44c-.51.118-.891.599-.891 1.172 0 .662.509 1.2 1.135 1.2S11.97 8.662 11.97 8c0-.573-.382-1.054-.89-1.172v-4.44h1.488c.425 0 .772-.366.772-.816V.816c0-.45-.347-.816-.773-.816H1.433C1.007 0 .66.366.66.816v.756c0 .45.347.816.773.816h3.67v11.224H.773c-.427 0-.773.366-.773.816v.755c0 .45.346.817.772.817h12.456c.426 0 .772-.366.772-.816v-.756c0-.45-.346-.816-.772-.816zM11.482 8c0 .377-.29.684-.647.684-.357 0-.647-.307-.647-.684 0-.377.29-.684.647-.684.357 0 .647.307.647.684zM1.432 1.572V.816c0-.165.24-.222.396-.222h10.575c.157 0 .284.057.284.222v.756c0 .165-.127.21-.284.21H1.828c-.157 0-.395-.045-.395-.21zM5.735 11.78h.274s.244-.115.244-.258a.251.251 0 00-.244-.258h-.274V9.432H8.31c.135 0 .96-.147.312-.29.648-.142-.177-.226-.312-.226H5.734V7.084h2.258c.135 0-.244-.115-.244-.258 0-.143.379-.258.244-.258H5.734v-4.18H8.31V4.22H5.521c-.134 0 0-.027 0 .115 0 .401-.142.401-.142.401H8.31v1.832h-.318a.251.251 0 00-.244.258c0 .143.11.258.244.258h.318v4.18H6.008c-.135 0 .244.115.244.258 0 .143-.379.258-.244.258H8.31v1.832H5.734V11.78zm7.669 3.404c0 .165-.246.207-.403.207H.91c-.158 0-.285-.042-.285-.207v-.756c0-.165.127-.21.284-.21h12.21c.156 0 .284.045.284.21v.756z" fill="#777"/></svg><svg fill="none" viewBox="0 0 16 12" id="sunbed" xmlns="http://www.w3.org/2000/svg"><path d="M15.995 3.362C15.903 1.477 14.458 0 12.705 0h-9.41C1.542 0 .097 1.477.005 3.362.002 3.425 0 10.377 0 10.377 0 11.272.675 12 1.505 12h12.99c.83 0 1.505-.728 1.505-1.623 0 0-.002-6.952-.005-7.015zM3.295.75h9.41c1.258 0 2.315.964 2.55 2.257h-.715c-.224-.885-.966-1.507-1.835-1.507H8.148c-.192 0 .348.168.348.375s-.54.375-.348.375h4.557c.483 0 .905.304 1.098.757h-.347c-.867 0-1.579.734-1.627 1.657a11.937 11.937 0 00-3.83-.621c-1.306 0-2.612.207-3.828.62-.048-.922-.76-1.656-1.628-1.656h-.346c.192-.453.614-.757 1.098-.757h4.853c.192 0 .348-.168.348-.375S8.34 1.5 8.148 1.5H3.295c-.869 0-1.611.622-1.835 1.507H.745C.98 1.714 2.037.75 3.295.75zm8.531 4.702v1.273c0 .556-.42 1.008-.935 1.008H5.11c-.516 0-.935-.452-.935-1.008V5.452c2.414-.88 5.238-.88 7.652 0zm3.478 4.925c0 .481-.363.873-.809.873H1.505c-.446 0-.81-.392-.81-.873V3.757h1.848c.516 0 .935.452.935 1.008v1.96c0 .97.732 1.758 1.63 1.758h6.32c.4 0 1.094-.474 1.094-1.758v-1.96c0-.556.419-1.008.934-1.008h1.848v6.62z" fill="#777"/></svg><svg fill="none" viewBox="0 0 7 12" id="up_arrow" xmlns="http://www.w3.org/2000/svg"><path d="M3.5 1L1 3.353M3.5 1v10m0-10l1.25 1.176L6 3.353" stroke="#141312" stroke-linecap="round" stroke-linejoin="round"/></svg><svg fill="none" viewBox="0 0 9 9" id="vector" xmlns="http://www.w3.org/2000/svg"><path d="M4.5 0C6.984 0 9 2.016 9 4.5S6.984 9 4.5 9A4.502 4.502 0 010 4.5C0 2.016 2.016 0 4.5 0zm0 .9A3.599 3.599 0 00.9 4.5c0 1.989 1.611 3.6 3.6 3.6s3.6-1.611 3.6-3.6S6.489.9 4.5.9zm0 1.35c.819 0 1.536.438 1.93 1.093l-.772.463a1.35 1.35 0 100 1.389l.772.462A2.25 2.25 0 114.5 2.25z" fill="#8F8F8F"/></svg></svg>